<svg width="38" height="33" viewBox="0 0 38 33" fill="none" xmlns="http://www.w3.org/2000/svg">
<path id="Vector" d="M18.8926 3.90127C18.9268 3.93371 18.9812 3.93391 19.0175 3.90381C19.4951 3.50766 19.9385 3.09977 20.4336 2.74296C21.9554 1.64308 23.7474 1.03196 25.7357 0.813355C28.0454 0.559696 30.2533 0.847726 32.3037 1.76338C35.2439 3.07567 37.0681 5.11319 37.7632 7.82302C38.2263 9.6282 37.9645 11.41 37.3722 13.1657C36.5885 15.4885 35.2563 17.5968 33.6673 19.6007C31.0991 22.8405 28.0098 25.7187 24.6156 28.3674C22.9695 29.6529 21.228 30.8538 19.5223 32.0863C19.1743 32.3373 18.838 32.3324 18.466 32.1015C16.5928 30.9418 14.8547 29.6508 13.1639 28.3131C10.2643 26.0143 7.57674 23.5554 5.2521 20.836C3.5869 18.8878 2.13793 16.8386 1.13715 14.588C0.608598 13.3884 0.210111 12.1579 0.0659595 10.8841C-0.3317 7.34664 1.05596 4.43746 4.57525 2.325C6.10872 1.40454 7.85179 0.898596 9.73902 0.772797C13.4248 0.526699 16.4661 1.59771 18.8926 3.90127V3.90127ZM13.0893 20.8442C13.105 21.4835 13.3577 21.964 13.9459 22.294C14.4637 22.5848 15.0461 22.569 15.6028 22.4404C16.2805 22.2851 16.9458 22.0864 17.6036 21.8795C18.4651 21.6045 19.3516 21.4753 20.2488 21.6471C20.8702 21.766 21.4575 22.0039 22.064 22.1771C22.4782 22.2954 22.8924 22.448 23.3199 22.4899C24.5957 22.6143 25.8467 21.9187 25.3579 20.5514C25.0994 19.8268 24.6396 19.1882 24.1293 18.5695C23.4665 17.7632 22.7897 16.9651 21.851 16.356C21.1933 15.9298 20.5081 15.5394 19.6391 15.4789C17.9614 15.3634 16.5506 15.8281 15.4139 16.8537C14.7161 17.4781 14.146 18.1931 13.7264 18.9703C13.3983 19.5876 13.1448 20.2242 13.0893 20.8442ZM16.3302 13.1973C17.2299 13.2207 17.8579 12.8625 18.1909 12.1744C18.3435 11.863 18.439 11.5345 18.4743 11.1996C18.5869 9.96847 18.1222 8.9119 16.9366 8.13099C16.6367 7.9337 16.2499 7.75978 15.8787 7.71853C14.8962 7.60717 14.1969 8.01344 13.7562 8.72286C13.0106 9.91829 13.5184 11.8362 14.7827 12.6824C15.2292 12.9815 15.7064 13.2214 16.3269 13.1973H16.3302ZM24.4258 10.3785C24.4267 10.3787 24.4275 10.378 24.4275 10.3771C24.4273 9.7867 24.3196 9.29027 24.0655 8.8789C23.9234 8.63547 23.7379 8.41115 23.5154 8.21348C22.6414 7.47862 21.5992 7.54599 20.6987 8.30903C19.7435 9.12088 19.3914 10.139 19.4891 11.2533C19.5313 11.8304 19.8149 12.3772 20.2911 12.7993C20.9348 13.3698 21.827 13.5142 22.6613 13.0743C23.8893 12.4332 24.3624 11.4612 24.4241 10.3798C24.4242 10.379 24.425 10.3783 24.4258 10.3785V10.3785ZM28.3197 14.2007C28.3203 14.2013 28.3214 14.2009 28.3214 14.2C28.3506 13.5041 28.1012 12.9693 27.5807 12.5339C27.1896 12.2074 26.7191 11.9558 26.14 12.0844C25.7397 12.1712 25.3605 12.3147 25.0191 12.5085C24.1591 13.0076 23.7176 13.7397 23.503 14.5763C23.3298 15.2513 23.387 15.903 23.8261 16.5052C24.2859 17.1369 24.9743 17.3665 25.8368 17.1926C26.4227 17.0678 26.9462 16.7929 27.3329 16.4069C27.9767 15.7971 28.3273 15.012 28.318 14.2014C28.318 14.2005 28.3191 14.2 28.3197 14.2007V14.2007ZM11.6602 12.5731C10.4573 12.5834 9.87074 13.0124 9.70339 13.9404C9.60548 14.5097 9.70311 15.0904 9.98507 15.6157C10.4573 16.5334 11.2054 17.2242 12.4066 17.4992C12.6116 17.5472 12.8262 17.5602 13.0375 17.5373C13.2487 17.5145 13.4521 17.4563 13.6354 17.3664C13.8188 17.2764 13.9782 17.1565 14.104 17.0139C14.2299 16.8713 14.3196 16.709 14.3676 16.5368C14.7644 15.1565 14.2599 14.0043 13.0089 13.0756C12.6212 12.7903 12.1921 12.4982 11.6602 12.5731Z" fill="white"/>
</svg>
