<svg width="229" height="234" viewBox="0 0 229 234" fill="none" xmlns="http://www.w3.org/2000/svg">
<rect x="62.4337" y="29.3713" width="69.2348" height="69.2348" rx="34.6174" transform="rotate(10.0488 62.4337 29.3713)" fill="#1C9EC1"/>
<path d="M92.1208 24.4643L91.4415 24.1724L27.5849 171.222L28.2643 171.514L92.1208 24.4643Z" fill="#3F3F3F"/>
<path d="M113.912 33.8289L113.233 33.537L49.3759 180.587L50.0553 180.879L113.912 33.8289Z" fill="#3F3F3F"/>
<path d="M135.697 43.1915L135.018 42.8995L71.1611 189.949L71.8404 190.241L135.697 43.1915Z" fill="#3F3F3F"/>
<path d="M157.49 52.5559L156.811 52.2639L92.954 199.314L93.6334 199.606L157.49 52.5559Z" fill="#3F3F3F"/>
<path d="M179.283 61.9243L178.604 61.6323L114.747 208.682L115.426 208.974L179.283 61.9243Z" fill="#3F3F3F"/>
<path d="M201.078 71.2888L200.398 70.9968L136.542 218.047L137.221 218.339L201.078 71.2888Z" fill="#3F3F3F"/>
<path d="M211.912 98.4864L64.0958 34.9611L63.8023 35.6369L211.619 99.1622L211.912 98.4864Z" fill="#3F3F3F"/>
<path d="M202.498 120.165L54.6817 56.6401L54.3883 57.3159L202.205 120.841L202.498 120.165Z" fill="#3F3F3F"/>
<path d="M193.088 141.837L45.2716 78.3114L44.9781 78.9872L192.795 142.513L193.088 141.837Z" fill="#3F3F3F"/>
<path d="M183.674 163.518L35.8575 99.9923L35.564 100.668L183.381 164.193L183.674 163.518Z" fill="#3F3F3F"/>
<path d="M174.258 185.197L26.4415 121.671L26.148 122.347L173.965 185.872L174.258 185.197Z" fill="#3F3F3F"/>
<path d="M164.844 206.879L17.0274 143.354L16.734 144.03L164.551 207.555L164.844 206.879Z" fill="#3F3F3F"/>
<rect x="77.5762" y="59.8771" width="69.2348" height="69.2348" rx="34.6174" transform="rotate(10.0488 77.5762 59.8771)" fill="#26B0D5"/>
</svg>
