<svg width="390" height="428" viewBox="0 0 390 428" fill="none" xmlns="http://www.w3.org/2000/svg">
<rect x="109.551" y="52.5483" width="115.677" height="125.742" rx="57.8387" transform="rotate(10.0488 109.551 52.5483)" fill="#F18733"/>
<path d="M159.36 46.3113L158.229 45.79L47.5179 318.49L48.6485 319.011L159.36 46.3113Z" fill="#3F3F3F"/>
<path d="M195.627 63.0318L194.496 62.5105L83.7848 335.21L84.9154 335.731L195.627 63.0318Z" fill="#3F3F3F"/>
<path d="M231.884 79.7488L230.753 79.2275L120.042 351.927L121.172 352.449L231.884 79.7488Z" fill="#3F3F3F"/>
<path d="M268.154 96.469L267.023 95.9478L156.312 368.647L157.443 369.169L268.154 96.469Z" fill="#3F3F3F"/>
<path d="M304.424 113.196L303.293 112.675L192.582 385.375L193.713 385.896L304.424 113.196Z" fill="#3F3F3F"/>
<path d="M340.697 129.917L339.567 129.396L228.855 402.095L229.986 402.616L340.697 129.917Z" fill="#3F3F3F"/>
<path d="M358.157 179.788L112.145 66.3633L111.636 67.6165L357.648 181.042L358.157 179.788Z" fill="#3F3F3F"/>
<path d="M341.835 219.992L95.8232 106.566L95.3144 107.82L341.326 221.245L341.835 219.992Z" fill="#3F3F3F"/>
<path d="M325.52 260.18L79.5083 146.755L78.9995 148.008L325.011 261.434L325.52 260.18Z" fill="#3F3F3F"/>
<path d="M309.198 300.387L63.1866 186.962L62.6779 188.215L308.69 301.64L309.198 300.387Z" fill="#3F3F3F"/>
<path d="M292.874 340.59L46.8617 227.165L46.3529 228.418L292.365 341.843L292.874 340.59Z" fill="#3F3F3F"/>
<path d="M276.552 380.8L30.54 267.375L30.0312 268.628L276.043 382.053L276.552 380.8Z" fill="#3F3F3F"/>
</svg>
